<svg width="279" height="35" viewBox="0 0 279 35" fill="none" xmlns="http://www.w3.org/2000/svg">
<path d="M17.54 7.048L18.152 8.344L3.428 15.22L18.152 22.096L17.54 23.392L0.00800003 15.22L17.54 7.048ZM115.948 9.064V31.168C115.948 32.2 116.248 32.884 116.848 33.22C117.472 33.58 118.324 33.76 119.404 33.76V34.516C118.876 34.492 118.144 34.456 117.208 34.408C116.272 34.384 115.276 34.372 114.22 34.372C113.476 34.372 112.732 34.384 111.988 34.408C111.268 34.456 110.716 34.492 110.332 34.516V33.76C111.196 33.76 111.808 33.604 112.168 33.292C112.528 32.98 112.708 32.392 112.708 31.528V13.384C112.708 12.304 112.516 11.512 112.132 11.008C111.748 10.48 111.028 10.216 109.972 10.216V9.46C110.74 9.532 111.484 9.568 112.204 9.568C112.9 9.568 113.56 9.532 114.184 9.46C114.832 9.364 115.42 9.232 115.948 9.064ZM121.708 8.956C122.98 8.956 124.12 9.304 125.128 10C126.136 10.672 126.928 11.668 127.504 12.988C128.104 14.308 128.404 15.94 128.404 17.884C128.404 19.18 128.248 20.464 127.936 21.736C127.624 22.984 127.132 24.124 126.46 25.156C125.812 26.164 124.96 26.98 123.904 27.604C122.872 28.204 121.624 28.504 120.16 28.504C119.032 28.504 118.048 28.24 117.208 27.712C116.392 27.184 115.84 26.548 115.552 25.804L115.912 25.3C116.248 25.972 116.728 26.536 117.352 26.992C118 27.448 118.804 27.676 119.764 27.676C121.108 27.676 122.152 27.256 122.896 26.416C123.64 25.576 124.156 24.46 124.444 23.068C124.756 21.652 124.912 20.092 124.912 18.388C124.912 16.468 124.756 14.896 124.444 13.672C124.132 12.448 123.664 11.536 123.04 10.936C122.416 10.336 121.648 10.036 120.736 10.036C119.56 10.036 118.492 10.528 117.532 11.512C116.572 12.472 115.96 13.936 115.696 15.904L115.264 15.4C115.528 13.36 116.248 11.776 117.424 10.648C118.624 9.52 120.052 8.956 121.708 8.956ZM142.338 8.956C142.986 8.956 143.55 9.088 144.03 9.352C144.534 9.616 144.918 9.964 145.182 10.396C145.47 10.804 145.614 11.272 145.614 11.8C145.614 12.4 145.422 12.928 145.038 13.384C144.678 13.84 144.186 14.068 143.562 14.068C143.058 14.068 142.614 13.912 142.23 13.6C141.846 13.264 141.654 12.796 141.654 12.196C141.654 11.74 141.774 11.356 142.014 11.044C142.278 10.708 142.566 10.444 142.878 10.252C142.71 10.012 142.458 9.892 142.122 9.892C141.378 9.892 140.694 10.12 140.07 10.576C139.446 11.008 138.918 11.572 138.486 12.268C138.054 12.964 137.718 13.708 137.478 14.5C137.238 15.268 137.118 15.988 137.118 16.66V24.292C137.118 25.468 137.454 26.26 138.126 26.668C138.822 27.052 139.758 27.244 140.934 27.244V28C140.382 27.976 139.602 27.952 138.594 27.928C137.586 27.88 136.518 27.856 135.39 27.856C134.574 27.856 133.758 27.88 132.942 27.928C132.15 27.952 131.55 27.976 131.142 28V27.244C132.126 27.244 132.822 27.064 133.23 26.704C133.662 26.344 133.878 25.66 133.878 24.652V13.384C133.878 12.304 133.686 11.512 133.302 11.008C132.918 10.48 132.198 10.216 131.142 10.216V9.46C131.91 9.532 132.654 9.568 133.374 9.568C134.07 9.568 134.73 9.532 135.354 9.46C136.002 9.364 136.59 9.232 137.118 9.064V13.564C137.382 12.868 137.754 12.172 138.234 11.476C138.738 10.756 139.338 10.156 140.034 9.676C140.73 9.196 141.498 8.956 142.338 8.956ZM152.285 28.252C151.301 28.252 150.449 28.072 149.729 27.712C149.009 27.328 148.457 26.8 148.073 26.128C147.713 25.456 147.533 24.676 147.533 23.788C147.533 22.732 147.773 21.868 148.253 21.196C148.757 20.524 149.393 19.984 150.161 19.576C150.929 19.168 151.733 18.832 152.573 18.568C153.437 18.28 154.253 18.016 155.021 17.776C155.789 17.512 156.413 17.212 156.893 16.876C157.397 16.54 157.649 16.096 157.649 15.544V13.312C157.649 12.304 157.493 11.536 157.181 11.008C156.893 10.48 156.497 10.132 155.993 9.964C155.489 9.772 154.925 9.676 154.301 9.676C153.701 9.676 153.053 9.76 152.357 9.928C151.685 10.096 151.145 10.444 150.737 10.972C151.193 11.068 151.589 11.308 151.925 11.692C152.261 12.076 152.429 12.568 152.429 13.168C152.429 13.768 152.237 14.248 151.853 14.608C151.469 14.944 150.977 15.112 150.377 15.112C149.681 15.112 149.165 14.896 148.829 14.464C148.517 14.008 148.361 13.504 148.361 12.952C148.361 12.328 148.517 11.824 148.829 11.44C149.141 11.056 149.537 10.696 150.017 10.36C150.569 9.976 151.277 9.652 152.141 9.388C153.029 9.1 154.025 8.956 155.129 8.956C156.113 8.956 156.953 9.076 157.649 9.316C158.345 9.532 158.921 9.856 159.377 10.288C160.001 10.864 160.409 11.572 160.601 12.412C160.793 13.228 160.889 14.212 160.889 15.364V25.372C160.889 25.972 160.973 26.404 161.141 26.668C161.333 26.932 161.621 27.064 162.005 27.064C162.269 27.064 162.521 27.004 162.761 26.884C163.001 26.764 163.289 26.572 163.625 26.308L164.021 26.92C163.517 27.304 163.037 27.628 162.581 27.892C162.125 28.132 161.513 28.252 160.745 28.252C160.049 28.252 159.473 28.132 159.017 27.892C158.561 27.652 158.213 27.304 157.973 26.848C157.757 26.368 157.649 25.768 157.649 25.048C157.001 26.128 156.221 26.932 155.309 27.46C154.421 27.988 153.413 28.252 152.285 28.252ZM153.581 26.812C154.373 26.812 155.105 26.584 155.777 26.128C156.473 25.672 157.097 24.988 157.649 24.076V17.02C157.361 17.428 156.941 17.776 156.389 18.064C155.837 18.328 155.237 18.604 154.589 18.892C153.941 19.156 153.317 19.48 152.717 19.864C152.141 20.224 151.661 20.704 151.277 21.304C150.893 21.904 150.701 22.684 150.701 23.644C150.701 24.604 150.953 25.372 151.457 25.948C151.985 26.524 152.693 26.812 153.581 26.812ZM170.899 3.484V9.496H176.227V10.216H170.899V24.148C170.899 25.276 171.103 26.068 171.511 26.524C171.919 26.98 172.483 27.208 173.203 27.208C173.923 27.208 174.547 26.92 175.075 26.344C175.603 25.744 176.059 24.748 176.443 23.356L177.163 23.536C176.923 24.928 176.443 26.104 175.723 27.064C175.027 28.024 173.947 28.504 172.483 28.504C171.667 28.504 170.995 28.396 170.467 28.18C169.939 27.988 169.471 27.7 169.063 27.316C168.535 26.764 168.163 26.104 167.947 25.336C167.755 24.568 167.659 23.548 167.659 22.276V10.216H164.203V9.496H167.659V3.988C168.259 3.964 168.835 3.916 169.387 3.844C169.939 3.772 170.443 3.652 170.899 3.484ZM182.941 28.252C181.957 28.252 181.105 28.072 180.385 27.712C179.665 27.328 179.113 26.8 178.729 26.128C178.369 25.456 178.189 24.676 178.189 23.788C178.189 22.732 178.429 21.868 178.909 21.196C179.413 20.524 180.049 19.984 180.817 19.576C181.585 19.168 182.389 18.832 183.229 18.568C184.093 18.28 184.909 18.016 185.677 17.776C186.445 17.512 187.069 17.212 187.549 16.876C188.053 16.54 188.305 16.096 188.305 15.544V13.312C188.305 12.304 188.149 11.536 187.837 11.008C187.549 10.48 187.153 10.132 186.649 9.964C186.145 9.772 185.581 9.676 184.957 9.676C184.357 9.676 183.709 9.76 183.013 9.928C182.341 10.096 181.801 10.444 181.393 10.972C181.849 11.068 182.245 11.308 182.581 11.692C182.917 12.076 183.085 12.568 183.085 13.168C183.085 13.768 182.893 14.248 182.509 14.608C182.125 14.944 181.633 15.112 181.033 15.112C180.337 15.112 179.821 14.896 179.485 14.464C179.173 14.008 179.017 13.504 179.017 12.952C179.017 12.328 179.173 11.824 179.485 11.44C179.797 11.056 180.193 10.696 180.673 10.36C181.225 9.976 181.933 9.652 182.797 9.388C183.685 9.1 184.681 8.956 185.785 8.956C186.769 8.956 187.609 9.076 188.305 9.316C189.001 9.532 189.577 9.856 190.033 10.288C190.657 10.864 191.065 11.572 191.257 12.412C191.449 13.228 191.545 14.212 191.545 15.364V25.372C191.545 25.972 191.629 26.404 191.797 26.668C191.989 26.932 192.277 27.064 192.661 27.064C192.925 27.064 193.177 27.004 193.417 26.884C193.657 26.764 193.945 26.572 194.281 26.308L194.677 26.92C194.173 27.304 193.693 27.628 193.237 27.892C192.781 28.132 192.169 28.252 191.401 28.252C190.705 28.252 190.129 28.132 189.673 27.892C189.217 27.652 188.869 27.304 188.629 26.848C188.413 26.368 188.305 25.768 188.305 25.048C187.657 26.128 186.877 26.932 185.965 27.46C185.077 27.988 184.069 28.252 182.941 28.252ZM184.237 26.812C185.029 26.812 185.761 26.584 186.433 26.128C187.129 25.672 187.753 24.988 188.305 24.076V17.02C188.017 17.428 187.597 17.776 187.045 18.064C186.493 18.328 185.893 18.604 185.245 18.892C184.597 19.156 183.973 19.48 183.373 19.864C182.797 20.224 182.317 20.704 181.933 21.304C181.549 21.904 181.357 22.684 181.357 23.644C181.357 24.604 181.609 25.372 182.113 25.948C182.641 26.524 183.349 26.812 184.237 26.812ZM207.639 8.956C208.479 8.956 209.211 9.076 209.835 9.316C210.459 9.556 210.975 9.892 211.383 10.324C211.839 10.804 212.151 11.428 212.319 12.196C212.487 12.964 212.571 13.912 212.571 15.04V24.652C212.571 25.66 212.775 26.344 213.183 26.704C213.615 27.064 214.323 27.244 215.307 27.244V28C214.899 27.976 214.275 27.952 213.435 27.928C212.595 27.88 211.779 27.856 210.987 27.856C210.195 27.856 209.415 27.88 208.647 27.928C207.903 27.952 207.339 27.976 206.955 28V27.244C207.819 27.244 208.431 27.064 208.791 26.704C209.151 26.344 209.331 25.66 209.331 24.652V14.248C209.331 13.504 209.283 12.82 209.187 12.196C209.091 11.572 208.851 11.068 208.467 10.684C208.083 10.3 207.459 10.108 206.595 10.108C205.659 10.108 204.819 10.396 204.075 10.972C203.355 11.548 202.779 12.34 202.347 13.348C201.939 14.332 201.735 15.436 201.735 16.66V24.652C201.735 25.66 201.915 26.344 202.275 26.704C202.635 27.064 203.247 27.244 204.111 27.244V28C203.727 27.976 203.151 27.952 202.383 27.928C201.639 27.88 200.871 27.856 200.079 27.856C199.287 27.856 198.471 27.88 197.631 27.928C196.791 27.952 196.167 27.976 195.759 28V27.244C196.743 27.244 197.439 27.064 197.847 26.704C198.279 26.344 198.495 25.66 198.495 24.652V13.384C198.495 12.304 198.303 11.512 197.919 11.008C197.535 10.48 196.815 10.216 195.759 10.216V9.46C196.527 9.532 197.271 9.568 197.991 9.568C198.687 9.568 199.347 9.532 199.971 9.46C200.619 9.364 201.207 9.232 201.735 9.064V13.312C202.359 11.752 203.211 10.636 204.291 9.964C205.371 9.292 206.487 8.956 207.639 8.956ZM218.475 8.956C219.315 8.956 220.047 9.076 220.671 9.316C221.295 9.556 221.811 9.892 222.219 10.324C222.675 10.804 222.987 11.428 223.155 12.196C223.323 12.964 223.407 13.912 223.407 15.04V24.652C223.407 25.66 223.611 26.344 224.019 26.704C224.451 27.064 225.159 27.244 226.143 27.244V28C225.735 27.976 225.111 27.952 224.271 27.928C223.431 27.88 222.615 27.856 221.823 27.856C221.031 27.856 220.251 27.88 219.483 27.928C218.739 27.952 218.175 27.976 217.791 28V27.244C218.655 27.244 219.267 27.064 219.627 26.704C219.987 26.344 220.167 25.66 220.167 24.652V14.248C220.167 13.504 220.119 12.82 220.023 12.196C219.927 11.572 219.687 11.068 219.303 10.684C218.919 10.3 218.295 10.108 217.431 10.108C216.495 10.108 215.655 10.396 214.911 10.972C214.191 11.548 213.615 12.328 213.183 13.312C212.775 14.296 212.571 15.4 212.571 16.624L212.463 13.276C213.111 11.62 213.987 10.492 215.091 9.892C216.195 9.268 217.323 8.956 218.475 8.956ZM232.828 28.252C231.844 28.252 230.992 28.072 230.272 27.712C229.552 27.328 229 26.8 228.616 26.128C228.256 25.456 228.076 24.676 228.076 23.788C228.076 22.732 228.316 21.868 228.796 21.196C229.3 20.524 229.936 19.984 230.704 19.576C231.472 19.168 232.276 18.832 233.116 18.568C233.98 18.28 234.796 18.016 235.564 17.776C236.332 17.512 236.956 17.212 237.436 16.876C237.94 16.54 238.192 16.096 238.192 15.544V13.312C238.192 12.304 238.036 11.536 237.724 11.008C237.436 10.48 237.04 10.132 236.536 9.964C236.032 9.772 235.468 9.676 234.844 9.676C234.244 9.676 233.596 9.76 232.9 9.928C232.228 10.096 231.688 10.444 231.28 10.972C231.736 11.068 232.132 11.308 232.468 11.692C232.804 12.076 232.972 12.568 232.972 13.168C232.972 13.768 232.78 14.248 232.396 14.608C232.012 14.944 231.52 15.112 230.92 15.112C230.224 15.112 229.708 14.896 229.372 14.464C229.06 14.008 228.904 13.504 228.904 12.952C228.904 12.328 229.06 11.824 229.372 11.44C229.684 11.056 230.08 10.696 230.56 10.36C231.112 9.976 231.82 9.652 232.684 9.388C233.572 9.1 234.568 8.956 235.672 8.956C236.656 8.956 237.496 9.076 238.192 9.316C238.888 9.532 239.464 9.856 239.92 10.288C240.544 10.864 240.952 11.572 241.144 12.412C241.336 13.228 241.432 14.212 241.432 15.364V25.372C241.432 25.972 241.516 26.404 241.684 26.668C241.876 26.932 242.164 27.064 242.548 27.064C242.812 27.064 243.064 27.004 243.304 26.884C243.544 26.764 243.832 26.572 244.168 26.308L244.564 26.92C244.06 27.304 243.58 27.628 243.124 27.892C242.668 28.132 242.056 28.252 241.288 28.252C240.592 28.252 240.016 28.132 239.56 27.892C239.104 27.652 238.756 27.304 238.516 26.848C238.3 26.368 238.192 25.768 238.192 25.048C237.544 26.128 236.764 26.932 235.852 27.46C234.964 27.988 233.956 28.252 232.828 28.252ZM234.124 26.812C234.916 26.812 235.648 26.584 236.32 26.128C237.016 25.672 237.64 24.988 238.192 24.076V17.02C237.904 17.428 237.484 17.776 236.932 18.064C236.38 18.328 235.78 18.604 235.132 18.892C234.484 19.156 233.86 19.48 233.26 19.864C232.684 20.224 232.204 20.704 231.82 21.304C231.436 21.904 231.244 22.684 231.244 23.644C231.244 24.604 231.496 25.372 232 25.948C232.528 26.524 233.236 26.812 234.124 26.812ZM256.734 2.008L246.942 28.504H245.754L255.546 2.008H256.734ZM260.88 7.048L278.412 15.22L260.88 23.392L260.268 22.096L274.992 15.22L260.268 8.344L260.88 7.048Z" fill="black"/>
<path d="M31.9963 2.512C36.2923 2.512 39.4843 3.592 41.5723 5.752C43.6603 7.888 44.7043 10.96 44.7043 14.968C44.7043 17.584 44.1883 19.876 43.1562 21.844C42.1483 23.788 40.6723 25.3 38.7283 26.38C36.7843 27.46 34.4323 28 31.6723 28C31.3123 28 30.8323 27.988 30.2323 27.964C29.6323 27.94 29.0083 27.928 28.3603 27.928C27.7363 27.904 27.1603 27.892 26.6323 27.892C25.7923 27.892 24.9643 27.904 24.1483 27.928C23.3323 27.928 22.6723 27.952 22.1683 28V27.28C22.9843 27.232 23.5963 27.136 24.0043 26.992C24.4363 26.848 24.7243 26.56 24.8683 26.128C25.0123 25.696 25.0843 25.048 25.0843 24.184V6.328C25.0843 5.44 25.0123 4.792 24.8683 4.384C24.7243 3.952 24.4363 3.664 24.0043 3.52C23.5963 3.352 22.9843 3.256 22.1683 3.232V2.512C22.6723 2.536 23.3323 2.572 24.1483 2.62C24.9643 2.644 25.7683 2.644 26.5603 2.62C27.4003 2.596 28.3483 2.572 29.4043 2.548C30.4603 2.524 31.3243 2.512 31.9963 2.512ZM31.0963 3.16C29.9923 3.16 29.2723 3.364 28.9363 3.772C28.6003 4.18 28.4323 5.008 28.4323 6.256V24.256C28.4323 25.504 28.6003 26.332 28.9363 26.74C29.2963 27.148 30.0283 27.352 31.1323 27.352C33.7483 27.352 35.7763 26.884 37.2163 25.948C38.6563 24.988 39.6643 23.596 40.2403 21.772C40.8163 19.948 41.1043 17.728 41.1043 15.112C41.1043 12.424 40.7803 10.204 40.1323 8.452C39.5083 6.676 38.4643 5.356 37.0003 4.492C35.5603 3.604 33.5923 3.16 31.0963 3.16ZM51.8199 0.459998C52.4439 0.459998 52.9839 0.687998 53.4399 1.144C53.8959 1.6 54.1239 2.14 54.1239 2.764C54.1239 3.388 53.8959 3.928 53.4399 4.384C52.9839 4.84 52.4439 5.068 51.8199 5.068C51.1959 5.068 50.6559 4.84 50.1999 4.384C49.7439 3.928 49.5159 3.388 49.5159 2.764C49.5159 2.14 49.7439 1.6 50.1999 1.144C50.6559 0.687998 51.1959 0.459998 51.8199 0.459998ZM53.6919 9.064V24.652C53.6919 25.66 53.8959 26.344 54.3039 26.704C54.7359 27.064 55.4439 27.244 56.4279 27.244V28C56.0199 27.976 55.3959 27.952 54.5559 27.928C53.7399 27.88 52.9119 27.856 52.0719 27.856C51.2559 27.856 50.4279 27.88 49.5879 27.928C48.7479 27.952 48.1239 27.976 47.7159 28V27.244C48.6999 27.244 49.3959 27.064 49.8039 26.704C50.2359 26.344 50.4519 25.66 50.4519 24.652V13.384C50.4519 12.304 50.2599 11.512 49.8759 11.008C49.4919 10.48 48.7719 10.216 47.7159 10.216V9.46C48.4839 9.532 49.2279 9.568 49.9479 9.568C50.6439 9.568 51.3039 9.532 51.9279 9.46C52.5759 9.364 53.1639 9.232 53.6919 9.064ZM63.3748 28.252C62.3908 28.252 61.5388 28.072 60.8188 27.712C60.0988 27.328 59.5468 26.8 59.1628 26.128C58.8028 25.456 58.6228 24.676 58.6228 23.788C58.6228 22.732 58.8628 21.868 59.3428 21.196C59.8468 20.524 60.4828 19.984 61.2508 19.576C62.0188 19.168 62.8228 18.832 63.6628 18.568C64.5268 18.28 65.3428 18.016 66.1108 17.776C66.8788 17.512 67.5028 17.212 67.9828 16.876C68.4868 16.54 68.7388 16.096 68.7388 15.544V13.312C68.7388 12.304 68.5828 11.536 68.2708 11.008C67.9828 10.48 67.5868 10.132 67.0828 9.964C66.5788 9.772 66.0148 9.676 65.3908 9.676C64.7908 9.676 64.1428 9.76 63.4468 9.928C62.7748 10.096 62.2348 10.444 61.8268 10.972C62.2828 11.068 62.6788 11.308 63.0148 11.692C63.3508 12.076 63.5188 12.568 63.5188 13.168C63.5188 13.768 63.3268 14.248 62.9428 14.608C62.5588 14.944 62.0668 15.112 61.4668 15.112C60.7708 15.112 60.2548 14.896 59.9188 14.464C59.6068 14.008 59.4508 13.504 59.4508 12.952C59.4508 12.328 59.6068 11.824 59.9188 11.44C60.2308 11.056 60.6268 10.696 61.1068 10.36C61.6588 9.976 62.3668 9.652 63.2308 9.388C64.1188 9.1 65.1148 8.956 66.2188 8.956C67.2028 8.956 68.0428 9.076 68.7388 9.316C69.4348 9.532 70.0108 9.856 70.4668 10.288C71.0908 10.864 71.4988 11.572 71.6908 12.412C71.8828 13.228 71.9788 14.212 71.9788 15.364V25.372C71.9788 25.972 72.0628 26.404 72.2308 26.668C72.4228 26.932 72.7108 27.064 73.0948 27.064C73.3588 27.064 73.6108 27.004 73.8508 26.884C74.0908 26.764 74.3788 26.572 74.7148 26.308L75.1108 26.92C74.6068 27.304 74.1268 27.628 73.6708 27.892C73.2148 28.132 72.6028 28.252 71.8348 28.252C71.1388 28.252 70.5628 28.132 70.1068 27.892C69.6508 27.652 69.3028 27.304 69.0628 26.848C68.8468 26.368 68.7388 25.768 68.7388 25.048C68.0908 26.128 67.3108 26.932 66.3988 27.46C65.5108 27.988 64.5028 28.252 63.3748 28.252ZM64.6708 26.812C65.4628 26.812 66.1948 26.584 66.8668 26.128C67.5628 25.672 68.1868 24.988 68.7388 24.076V17.02C68.4508 17.428 68.0308 17.776 67.4788 18.064C66.9268 18.328 66.3268 18.604 65.6788 18.892C65.0308 19.156 64.4068 19.48 63.8068 19.864C63.2308 20.224 62.7508 20.704 62.3668 21.304C61.9828 21.904 61.7908 22.684 61.7908 23.644C61.7908 24.604 62.0428 25.372 62.5468 25.948C63.0748 26.524 63.7828 26.812 64.6708 26.812ZM81.3044 28.252C80.3204 28.252 79.4684 28.072 78.7484 27.712C78.0284 27.328 77.4764 26.8 77.0924 26.128C76.7324 25.456 76.5524 24.676 76.5524 23.788C76.5524 22.732 76.7924 21.868 77.2724 21.196C77.7764 20.524 78.4124 19.984 79.1804 19.576C79.9484 19.168 80.7524 18.832 81.5924 18.568C82.4564 18.28 83.2724 18.016 84.0404 17.776C84.8084 17.512 85.4324 17.212 85.9124 16.876C86.4164 16.54 86.6684 16.096 86.6684 15.544V13.312C86.6684 12.304 86.5124 11.536 86.2004 11.008C85.9124 10.48 85.5164 10.132 85.0124 9.964C84.5084 9.772 83.9444 9.676 83.3204 9.676C82.7204 9.676 82.0724 9.76 81.3764 9.928C80.7044 10.096 80.1644 10.444 79.7564 10.972C80.2124 11.068 80.6084 11.308 80.9444 11.692C81.2804 12.076 81.4484 12.568 81.4484 13.168C81.4484 13.768 81.2564 14.248 80.8724 14.608C80.4884 14.944 79.9964 15.112 79.3964 15.112C78.7004 15.112 78.1844 14.896 77.8484 14.464C77.5364 14.008 77.3804 13.504 77.3804 12.952C77.3804 12.328 77.5364 11.824 77.8484 11.44C78.1604 11.056 78.5564 10.696 79.0364 10.36C79.5884 9.976 80.2964 9.652 81.1604 9.388C82.0484 9.1 83.0444 8.956 84.1484 8.956C85.1324 8.956 85.9724 9.076 86.6684 9.316C87.3644 9.532 87.9404 9.856 88.3964 10.288C89.0204 10.864 89.4284 11.572 89.6204 12.412C89.8124 13.228 89.9084 14.212 89.9084 15.364V25.372C89.9084 25.972 89.9924 26.404 90.1604 26.668C90.3524 26.932 90.6404 27.064 91.0244 27.064C91.2884 27.064 91.5404 27.004 91.7804 26.884C92.0204 26.764 92.3084 26.572 92.6444 26.308L93.0404 26.92C92.5364 27.304 92.0564 27.628 91.6004 27.892C91.1444 28.132 90.5324 28.252 89.7644 28.252C89.0684 28.252 88.4924 28.132 88.0364 27.892C87.5804 27.652 87.2324 27.304 86.9924 26.848C86.7764 26.368 86.6684 25.768 86.6684 25.048C86.0204 26.128 85.2404 26.932 84.3284 27.46C83.4404 27.988 82.4324 28.252 81.3044 28.252ZM82.6004 26.812C83.3924 26.812 84.1244 26.584 84.7964 26.128C85.4924 25.672 86.1164 24.988 86.6684 24.076V17.02C86.3804 17.428 85.9604 17.776 85.4084 18.064C84.8564 18.328 84.2564 18.604 83.6084 18.892C82.9604 19.156 82.3364 19.48 81.7364 19.864C81.1604 20.224 80.6804 20.704 80.2964 21.304C79.9124 21.904 79.7204 22.684 79.7204 23.644C79.7204 24.604 79.9724 25.372 80.4764 25.948C81.0044 26.524 81.7124 26.812 82.6004 26.812ZM100.566 8.956C101.526 8.956 102.342 9.112 103.014 9.424C103.686 9.736 104.178 10.024 104.49 10.288C105.282 10.936 105.762 10.504 105.93 8.992H106.758C106.71 9.664 106.674 10.468 106.65 11.404C106.626 12.316 106.614 13.552 106.614 15.112H105.786C105.642 14.224 105.39 13.36 105.03 12.52C104.694 11.68 104.19 10.996 103.518 10.468C102.846 9.916 101.97 9.64 100.89 9.64C100.05 9.64 99.3421 9.88 98.7661 10.36C98.2141 10.816 97.9381 11.5 97.9381 12.412C97.9381 13.132 98.1541 13.756 98.5861 14.284C99.0181 14.788 99.5821 15.268 100.278 15.724C100.974 16.156 101.73 16.636 102.546 17.164C103.458 17.74 104.286 18.328 105.03 18.928C105.774 19.528 106.362 20.188 106.794 20.908C107.25 21.628 107.478 22.48 107.478 23.464C107.478 24.568 107.19 25.492 106.614 26.236C106.038 26.98 105.282 27.544 104.346 27.928C103.434 28.312 102.426 28.504 101.322 28.504C100.794 28.504 100.29 28.456 99.8101 28.36C99.3541 28.288 98.9101 28.168 98.4781 28C98.2381 27.88 97.9861 27.736 97.7221 27.568C97.4821 27.4 97.2421 27.22 97.0021 27.028C96.7621 26.836 96.5461 26.848 96.3541 27.064C96.1621 27.256 96.0181 27.652 95.9221 28.252H95.0941C95.1421 27.484 95.1781 26.548 95.2021 25.444C95.2261 24.34 95.2381 22.876 95.2381 21.052H96.0661C96.2341 22.396 96.4741 23.572 96.7861 24.58C97.0981 25.588 97.5901 26.38 98.2621 26.956C98.9341 27.508 99.8701 27.784 101.07 27.784C101.55 27.784 102.03 27.676 102.51 27.46C103.014 27.244 103.434 26.884 103.77 26.38C104.106 25.876 104.274 25.204 104.274 24.364C104.274 23.308 103.89 22.444 103.122 21.772C102.354 21.1 101.382 20.392 100.206 19.648C99.3421 19.096 98.5261 18.544 97.7581 17.992C97.0141 17.44 96.4021 16.816 95.9221 16.12C95.4661 15.424 95.2381 14.584 95.2381 13.6C95.2381 12.52 95.4781 11.644 95.9581 10.972C96.4621 10.276 97.1221 9.772 97.9381 9.46C98.7541 9.124 99.6301 8.956 100.566 8.956Z" fill="#919191"/>
</svg>
